<svg xmlns="http://www.w3.org/2000/svg" viewBox="0 0 390 844" fill="none">
  <!-- Background -->
  <rect width="390" height="844" fill="#0f172a"/>
  
  <!-- Status bar -->
  <rect x="0" y="0" width="390" height="44" fill="#1e293b"/>
  <text x="30" y="30" font-family="system-ui" font-size="14" fill="#94a3b8">9:41</text>
  <circle cx="340" cy="22" r="8" fill="#22c55e"/>
  <rect x="355" y="17" width="20" height="10" rx="2" fill="#94a3b8"/>
  
  <!-- Header -->
  <rect x="0" y="44" width="390" height="60" fill="#1e293b"/>
  <text x="20" y="82" font-family="system-ui" font-size="18" font-weight="600" fill="#f8fafc">Portfolio</text>
  <text x="330" y="82" font-family="system-ui" font-size="14" fill="#22c55e">+2.4%</text>
  
  <!-- Main balance card -->
  <rect x="16" y="120" width="358" height="120" rx="16" fill="#1e293b"/>
  <text x="32" y="155" font-family="system-ui" font-size="12" fill="#64748b">Total Value</text>
  <text x="32" y="190" font-family="system-ui" font-size="28" font-weight="700" fill="#f8fafc">¹12,45,678</text>
  <text x="32" y="220" font-family="system-ui" font-size="14" fill="#22c55e">+¹24,567 (2.4%) today</text>
  
  <!-- Chart area -->
  <rect x="16" y="260" width="358" height="200" rx="12" fill="#1e293b"/>
  <text x="32" y="290" font-family="system-ui" font-size="14" font-weight="500" fill="#f8fafc">Performance</text>
  
  <!-- Chart line -->
  <path d="M40 400 Q100 380 140 420 T220 360 T300 390 T350 340" stroke="#22c55e" stroke-width="3" fill="none"/>
  <circle cx="140" cy="420" r="4" fill="#22c55e"/>
  <circle cx="220" cy="360" r="4" fill="#22c55e"/>
  <circle cx="300" cy="390" r="4" fill="#22c55e"/>
  <circle cx="350" cy="340" r="4" fill="#22c55e"/>
  
  <!-- Time tabs -->
  <rect x="40" y="430" width="40" height="24" rx="12" fill="#22c55e"/>
  <text x="52" y="447" font-family="system-ui" font-size="11" fill="#0f172a">1D</text>
  <text x="100" y="447" font-family="system-ui" font-size="11" fill="#64748b">1W</text>
  <text x="145" y="447" font-family="system-ui" font-size="11" fill="#64748b">1M</text>
  <text x="190" y="447" font-family="system-ui" font-size="11" fill="#64748b">3M</text>
  <text x="235" y="447" font-family="system-ui" font-size="11" fill="#64748b">1Y</text>
  <text x="280" y="447" font-family="system-ui" font-size="11" fill="#64748b">ALL</text>
  
  <!-- Holdings section -->
  <text x="16" y="510" font-family="system-ui" font-size="16" font-weight="600" fill="#f8fafc">Holdings</text>
  
  <!-- Stock cards -->
  <rect x="16" y="530" width="358" height="70" rx="12" fill="#1e293b"/>
  <text x="32" y="560" font-family="system-ui" font-size="14" font-weight="500" fill="#f8fafc">RELIANCE</text>
  <text x="32" y="582" font-family="system-ui" font-size="12" fill="#64748b">50 shares</text>
  <text x="300" y="560" font-family="system-ui" font-size="14" fill="#f8fafc">¹1,24,500</text>
  <text x="320" y="582" font-family="system-ui" font-size="12" fill="#22c55e">+1.2%</text>
  
  <rect x="16" y="610" width="358" height="70" rx="12" fill="#1e293b"/>
  <text x="32" y="640" font-family="system-ui" font-size="14" font-weight="500" fill="#f8fafc">TCS</text>
  <text x="32" y="662" font-family="system-ui" font-size="12" fill="#64748b">25 shares</text>
  <text x="300" y="640" font-family="system-ui" font-size="14" fill="#f8fafc">¹89,750</text>
  <text x="320" y="662" font-family="system-ui" font-size="12" fill="#22c55e">+0.8%</text>
  
  <rect x="16" y="690" width="358" height="70" rx="12" fill="#1e293b"/>
  <text x="32" y="720" font-family="system-ui" font-size="14" font-weight="500" fill="#f8fafc">HDFC BANK</text>
  <text x="32" y="742" font-family="system-ui" font-size="12" fill="#64748b">30 shares</text>
  <text x="300" y="720" font-family="system-ui" font-size="14" fill="#f8fafc">¹48,900</text>
  <text x="320" y="742" font-family="system-ui" font-size="12" fill="#ef4444">-0.3%</text>
  
  <!-- Bottom nav -->
  <rect x="0" y="780" width="390" height="64" fill="#1e293b"/>
  <text x="45" y="820" font-family="system-ui" font-size="10" fill="#22c55e" text-anchor="middle">Home</text>
  <text x="130" y="820" font-family="system-ui" font-size="10" fill="#64748b" text-anchor="middle">Search</text>
  <text x="215" y="820" font-family="system-ui" font-size="10" fill="#64748b" text-anchor="middle">Orders</text>
  <text x="300" y="820" font-family="system-ui" font-size="10" fill="#64748b" text-anchor="middle">Portfolio</text>
  <text x="355" y="820" font-family="system-ui" font-size="10" fill="#64748b" text-anchor="middle">More</text>
</svg>
