<svg xmlns="http://www.w3.org/2000/svg" width="390" height="844" viewBox="0 0 390 844">
  <defs>
    <linearGradient id="greenGrad" x1="0%" y1="0%" x2="100%" y2="100%">
      <stop offset="0%" style="stop-color:#22c55e"/>
      <stop offset="100%" style="stop-color:#16a34a"/>
    </linearGradient>
  </defs>
  
  <!-- Background -->
  <rect width="390" height="844" fill="#0f172a"/>
  
  <!-- Status bar area -->
  <rect y="50" width="390" height="54" fill="#1e293b"/>
  <text x="195" y="85" font-family="Arial, sans-serif" font-size="18" font-weight="bold" fill="#f8fafc" text-anchor="middle">Portfolio</text>
  
  <!-- Balance card -->
  <rect x="20" y="120" width="350" height="110" rx="16" fill="#1e293b"/>
  <text x="40" y="155" font-family="Arial, sans-serif" font-size="13" fill="#64748b">Total Value</text>
  <text x="40" y="190" font-family="Arial, sans-serif" font-size="28" font-weight="bold" fill="#f8fafc">?12,45,678</text>
  <text x="40" y="215" font-family="Arial, sans-serif" font-size="13" fill="#22c55e">? +?24,567 (2.4%)</text>
  
  <!-- Chart section -->
  <rect x="20" y="250" width="350" height="180" rx="12" fill="#1e293b"/>
  <text x="40" y="285" font-family="Arial, sans-serif" font-size="14" font-weight="bold" fill="#f8fafc">Performance</text>
  
  <!-- Chart line -->
  <polyline points="50,380 100,350 150,390 200,320 250,350 300,300 340,330" 
            stroke="#22c55e" stroke-width="3" fill="none" stroke-linecap="round" stroke-linejoin="round"/>
  <circle cx="100" cy="350" r="5" fill="#22c55e"/>
  <circle cx="150" cy="390" r="5" fill="#22c55e"/>
  <circle cx="200" cy="320" r="5" fill="#22c55e"/>
  <circle cx="250" cy="350" r="5" fill="#22c55e"/>
  <circle cx="300" cy="300" r="5" fill="#22c55e"/>
  
  <!-- Holdings title -->
  <text x="20" y="470" font-family="Arial, sans-serif" font-size="16" font-weight="bold" fill="#f8fafc">Holdings</text>
  
  <!-- Stock 1 -->
  <rect x="20" y="490" width="350" height="65" rx="12" fill="#1e293b"/>
  <rect x="35" y="505" width="36" height="36" rx="8" fill="#3b82f6"/>
  <text x="45" y="530" font-family="Arial, sans-serif" font-size="14" font-weight="bold" fill="#fff">R</text>
  <text x="85" y="525" font-family="Arial, sans-serif" font-size="14" font-weight="bold" fill="#f8fafc">RELIANCE</text>
  <text x="85" y="543" font-family="Arial, sans-serif" font-size="11" fill="#64748b">50 shares</text>
  <text x="340" y="525" font-family="Arial, sans-serif" font-size="13" fill="#f8fafc" text-anchor="end">?1,24,500</text>
  <text x="340" y="543" font-family="Arial, sans-serif" font-size="11" fill="#22c55e" text-anchor="end">+1.2%</text>
  
  <!-- Stock 2 -->
  <rect x="20" y="565" width="350" height="65" rx="12" fill="#1e293b"/>
  <rect x="35" y="580" width="36" height="36" rx="8" fill="#8b5cf6"/>
  <text x="45" y="605" font-family="Arial, sans-serif" font-size="14" font-weight="bold" fill="#fff">T</text>
  <text x="85" y="600" font-family="Arial, sans-serif" font-size="14" font-weight="bold" fill="#f8fafc">TCS</text>
  <text x="85" y="618" font-family="Arial, sans-serif" font-size="11" fill="#64748b">25 shares</text>
  <text x="340" y="600" font-family="Arial, sans-serif" font-size="13" fill="#f8fafc" text-anchor="end">?89,750</text>
  <text x="340" y="618" font-family="Arial, sans-serif" font-size="11" fill="#22c55e" text-anchor="end">+0.8%</text>
  
  <!-- Stock 3 -->
  <rect x="20" y="640" width="350" height="65" rx="12" fill="#1e293b"/>
  <rect x="35" y="655" width="36" height="36" rx="8" fill="#f59e0b"/>
  <text x="45" y="680" font-family="Arial, sans-serif" font-size="14" font-weight="bold" fill="#fff">H</text>
  <text x="85" y="675" font-family="Arial, sans-serif" font-size="14" font-weight="bold" fill="#f8fafc">HDFC BANK</text>
  <text x="85" y="693" font-family="Arial, sans-serif" font-size="11" fill="#64748b">30 shares</text>
  <text x="340" y="675" font-family="Arial, sans-serif" font-size="13" fill="#f8fafc" text-anchor="end">?48,900</text>
  <text x="340" y="693" font-family="Arial, sans-serif" font-size="11" fill="#ef4444" text-anchor="end">-0.3%</text>
  
  <!-- Bottom nav -->
  <rect y="780" width="390" height="64" fill="#1e293b"/>
  <circle cx="50" cy="805" r="12" fill="#22c55e" opacity="0.2"/>
  <text x="50" y="835" font-family="Arial, sans-serif" font-size="10" fill="#22c55e" text-anchor="middle">Home</text>
  <text x="130" y="835" font-family="Arial, sans-serif" font-size="10" fill="#64748b" text-anchor="middle">Search</text>
  <text x="210" y="835" font-family="Arial, sans-serif" font-size="10" fill="#64748b" text-anchor="middle">Orders</text>
  <text x="290" y="835" font-family="Arial, sans-serif" font-size="10" fill="#64748b" text-anchor="middle">Portfolio</text>
  <text x="355" y="835" font-family="Arial, sans-serif" font-size="10" fill="#64748b" text-anchor="middle">More</text>
</svg>