<svg xmlns="http://www.w3.org/2000/svg" viewBox="0 0 390 844" fill="none">
  <!-- Background -->
  <rect width="390" height="844" fill="#0a0a0a"/>
  
  <!-- Status bar -->
  <rect x="0" y="0" width="390" height="44" fill="#0a0a0a"/>
  <text x="30" y="30" font-family="system-ui" font-size="14" fill="#ffffff">9:41</text>
  <circle cx="340" cy="22" r="8" fill="#22c55e"/>
  <rect x="355" y="17" width="20" height="10" rx="2" fill="#ffffff"/>
  
  <!-- Header -->
  <rect x="0" y="44" width="390" height="60" fill="#0a0a0a"/>
  <text x="20" y="82" font-family="system-ui" font-size="20" font-weight="700" fill="#ffffff">Net Worth</text>
  <circle cx="350" cy="74" r="18" fill="#1a1a1a"/>
  
  <!-- Net worth card -->
  <rect x="16" y="120" width="358" height="140" rx="20" fill="linear-gradient(135deg, #22c55e 0%, #16a34a 100%)"/>
  <rect x="16" y="120" width="358" height="140" rx="20" fill="#16a34a"/>
  <text x="32" y="155" font-family="system-ui" font-size="12" fill="rgba(255,255,255,0.8)">Total Net Worth</text>
  <text x="32" y="195" font-family="system-ui" font-size="36" font-weight="700" fill="#ffffff">¹45,23,456</text>
  <text x="32" y="225" font-family="system-ui" font-size="14" fill="rgba(255,255,255,0.9)">‘ ¹1,23,456 (2.8%) this month</text>
  
  <!-- Asset breakdown -->
  <text x="16" y="300" font-family="system-ui" font-size="16" font-weight="600" fill="#ffffff">Asset Breakdown</text>
  
  <!-- Pie chart representation -->
  <circle cx="80" cy="380" r="50" fill="none" stroke="#3b82f6" stroke-width="20" stroke-dasharray="110 204"/>
  <circle cx="80" cy="380" r="50" fill="none" stroke="#22c55e" stroke-width="20" stroke-dasharray="70 244" stroke-dashoffset="-110"/>
  <circle cx="80" cy="380" r="50" fill="none" stroke="#f59e0b" stroke-width="20" stroke-dasharray="24 290" stroke-dashoffset="-180"/>
  
  <!-- Legend -->
  <circle cx="160" cy="345" r="6" fill="#3b82f6"/>
  <text x="175" y="350" font-family="system-ui" font-size="12" fill="#94a3b8">Stocks (55%)</text>
  <text x="300" y="350" font-family="system-ui" font-size="12" fill="#ffffff">¹24,87,900</text>
  
  <circle cx="160" cy="375" r="6" fill="#22c55e"/>
  <text x="175" y="380" font-family="system-ui" font-size="12" fill="#94a3b8">Mutual Funds (35%)</text>
  <text x="300" y="380" font-family="system-ui" font-size="12" fill="#ffffff">¹15,83,209</text>
  
  <circle cx="160" cy="405" r="6" fill="#f59e0b"/>
  <text x="175" y="410" font-family="system-ui" font-size="12" fill="#94a3b8">Gold (10%)</text>
  <text x="300" y="410" font-family="system-ui" font-size="12" fill="#ffffff">¹4,52,347</text>
  
  <!-- Accounts section -->
  <text x="16" y="480" font-family="system-ui" font-size="16" font-weight="600" fill="#ffffff">Linked Accounts</text>
  
  <rect x="16" y="500" width="358" height="70" rx="12" fill="#1a1a1a"/>
  <rect x="32" y="520" width="36" height="36" rx="8" fill="#3b82f6"/>
  <text x="80" y="540" font-family="system-ui" font-size="14" font-weight="500" fill="#ffffff">HDFC Bank</text>
  <text x="80" y="560" font-family="system-ui" font-size="12" fill="#64748b">Savings ****4521</text>
  <text x="340" y="545" font-family="system-ui" font-size="14" fill="#ffffff" text-anchor="end">¹2,34,567</text>
  
  <rect x="16" y="580" width="358" height="70" rx="12" fill="#1a1a1a"/>
  <rect x="32" y="600" width="36" height="36" rx="8" fill="#22c55e"/>
  <text x="80" y="620" font-family="system-ui" font-size="14" font-weight="500" fill="#ffffff">Zerodha</text>
  <text x="80" y="640" font-family="system-ui" font-size="12" fill="#64748b">Trading Account</text>
  <text x="340" y="625" font-family="system-ui" font-size="14" fill="#ffffff" text-anchor="end">¹24,87,900</text>
  
  <rect x="16" y="660" width="358" height="70" rx="12" fill="#1a1a1a"/>
  <rect x="32" y="680" width="36" height="36" rx="8" fill="#f59e0b"/>
  <text x="80" y="700" font-family="system-ui" font-size="14" font-weight="500" fill="#ffffff">SBI MF</text>
  <text x="80" y="720" font-family="system-ui" font-size="12" fill="#64748b">Mutual Funds</text>
  <text x="340" y="705" font-family="system-ui" font-size="14" fill="#ffffff" text-anchor="end">¹15,83,209</text>
  
  <!-- Bottom nav -->
  <rect x="0" y="780" width="390" height="64" fill="#1a1a1a"/>
  <text x="50" y="820" font-family="system-ui" font-size="10" fill="#22c55e" text-anchor="middle">Home</text>
  <text x="130" y="820" font-family="system-ui" font-size="10" fill="#64748b" text-anchor="middle">Invest</text>
  <text x="210" y="820" font-family="system-ui" font-size="10" fill="#64748b" text-anchor="middle">Track</text>
  <text x="290" y="820" font-family="system-ui" font-size="10" fill="#64748b" text-anchor="middle">Learn</text>
  <text x="355" y="820" font-family="system-ui" font-size="10" fill="#64748b" text-anchor="middle">Profile</text>
</svg>
